<mxfile host="app.diagrams.net" modified="2023-04-26T10:13:09.265Z" agent="Mozilla/5.0 (Windows NT 10.0; Win64; x64) AppleWebKit/537.36 (KHTML, like Gecko) Chrome/112.0.0.0 Safari/537.36" etag="6Z-b7oAD3d7cx4FF8yCn" version="21.1.8" type="device">
  <diagram name="Page-1" id="GylVfzi0xPvJJQHYP8Fk">
    <mxGraphModel dx="1434" dy="749" grid="1" gridSize="10" guides="1" tooltips="1" connect="1" arrows="1" fold="1" page="1" pageScale="1" pageWidth="850" pageHeight="1100" math="0" shadow="0">
      <root>
        <mxCell id="0" />
        <mxCell id="1" parent="0" />
        <mxCell id="XNnfS-JBgEhjAtbrDdEc-15" value="" style="group" vertex="1" connectable="0" parent="1">
          <mxGeometry x="290" y="100" width="350" height="500" as="geometry" />
        </mxCell>
        <mxCell id="atxJQaqEpM3TSjmgH-MS-1" value="" style="rounded=1;whiteSpace=wrap;html=1;shadow=0;sketch=0;strokeColor=none;strokeWidth=4;fillColor=#E3E6B8;gradientColor=none;" parent="XNnfS-JBgEhjAtbrDdEc-15" vertex="1">
          <mxGeometry x="-250" y="-40" width="600" height="480" as="geometry" />
        </mxCell>
        <mxCell id="XNnfS-JBgEhjAtbrDdEc-3" value="" style="rounded=1;arcSize=10;whiteSpace=wrap;html=1;align=center;strokeColor=#000000;strokeWidth=3;fillColor=#FFD966;perimeterSpacing=0;shadow=1;" vertex="1" parent="XNnfS-JBgEhjAtbrDdEc-15">
          <mxGeometry width="310" height="390" as="geometry" />
        </mxCell>
        <mxCell id="XNnfS-JBgEhjAtbrDdEc-5" value="&lt;b style=&quot;border-color: var(--border-color);&quot;&gt;&lt;font style=&quot;font-size: 20px;&quot;&gt;Specification mappers&lt;/font&gt;&lt;/b&gt;" style="text;html=1;strokeColor=none;fillColor=none;align=left;verticalAlign=middle;whiteSpace=wrap;rounded=0;" vertex="1" parent="XNnfS-JBgEhjAtbrDdEc-15">
          <mxGeometry x="33.21428571428572" y="10" width="243.57142857142864" height="30" as="geometry" />
        </mxCell>
        <mxCell id="XNnfS-JBgEhjAtbrDdEc-6" value="&lt;font size=&quot;1&quot; style=&quot;&quot;&gt;&lt;b style=&quot;font-size: 17px;&quot;&gt;Model mapper&lt;/b&gt;&lt;/font&gt;" style="rounded=1;arcSize=10;whiteSpace=wrap;html=1;align=center;strokeColor=#000000;strokeWidth=3;fillColor=#FFD966;perimeterSpacing=0;shadow=1;" vertex="1" parent="XNnfS-JBgEhjAtbrDdEc-15">
          <mxGeometry x="33.21428571428572" y="60" width="177.14285714285717" height="50" as="geometry" />
        </mxCell>
        <mxCell id="XNnfS-JBgEhjAtbrDdEc-7" value="&lt;font size=&quot;1&quot; style=&quot;&quot;&gt;&lt;b style=&quot;font-size: 17px;&quot;&gt;Instance mapper&lt;/b&gt;&lt;/font&gt;" style="rounded=1;arcSize=10;whiteSpace=wrap;html=1;align=center;strokeColor=#000000;strokeWidth=3;fillColor=#FFD966;perimeterSpacing=0;shadow=1;" vertex="1" parent="XNnfS-JBgEhjAtbrDdEc-15">
          <mxGeometry x="33.21428571428572" y="140" width="177.14285714285717" height="50" as="geometry" />
        </mxCell>
        <mxCell id="XNnfS-JBgEhjAtbrDdEc-8" value="&lt;font size=&quot;1&quot; style=&quot;&quot;&gt;&lt;b style=&quot;font-size: 17px;&quot;&gt;Constraint mapper&lt;/b&gt;&lt;/font&gt;" style="rounded=1;arcSize=10;whiteSpace=wrap;html=1;align=center;strokeColor=#000000;strokeWidth=3;fillColor=#FFD966;perimeterSpacing=0;shadow=1;" vertex="1" parent="XNnfS-JBgEhjAtbrDdEc-15">
          <mxGeometry x="33.21428571428572" y="220" width="177.14285714285717" height="50" as="geometry" />
        </mxCell>
        <mxCell id="XNnfS-JBgEhjAtbrDdEc-9" value="&lt;font size=&quot;1&quot; style=&quot;&quot;&gt;&lt;b style=&quot;font-size: 17px;&quot;&gt;Function mapper&lt;/b&gt;&lt;/font&gt;" style="rounded=1;arcSize=10;whiteSpace=wrap;html=1;align=center;strokeColor=#000000;strokeWidth=3;fillColor=#FFD966;perimeterSpacing=0;shadow=1;" vertex="1" parent="XNnfS-JBgEhjAtbrDdEc-15">
          <mxGeometry x="33.21428571428572" y="300" width="177.14285714285717" height="50" as="geometry" />
        </mxCell>
        <mxCell id="XNnfS-JBgEhjAtbrDdEc-14" style="edgeStyle=orthogonalEdgeStyle;rounded=0;orthogonalLoop=1;jettySize=auto;html=1;endArrow=block;endFill=0;strokeWidth=2;endSize=13;" edge="1" parent="1" source="XNnfS-JBgEhjAtbrDdEc-2" target="XNnfS-JBgEhjAtbrDdEc-7">
          <mxGeometry relative="1" as="geometry">
            <mxPoint x="230" y="230" as="sourcePoint" />
            <mxPoint x="360" y="195" as="targetPoint" />
          </mxGeometry>
        </mxCell>
        <mxCell id="XNnfS-JBgEhjAtbrDdEc-13" style="edgeStyle=orthogonalEdgeStyle;rounded=0;orthogonalLoop=1;jettySize=auto;html=1;endArrow=block;endFill=0;strokeWidth=2;endSize=13;exitX=1;exitY=0.5;exitDx=0;exitDy=0;" edge="1" parent="1" source="XNnfS-JBgEhjAtbrDdEc-2" target="XNnfS-JBgEhjAtbrDdEc-6">
          <mxGeometry relative="1" as="geometry">
            <mxPoint x="750" y="530" as="sourcePoint" />
            <mxPoint x="670" y="530" as="targetPoint" />
          </mxGeometry>
        </mxCell>
        <mxCell id="XNnfS-JBgEhjAtbrDdEc-17" style="edgeStyle=orthogonalEdgeStyle;rounded=0;orthogonalLoop=1;jettySize=auto;html=1;endArrow=block;endFill=0;strokeWidth=2;endSize=13;" edge="1" parent="1" source="atxJQaqEpM3TSjmgH-MS-33" target="XNnfS-JBgEhjAtbrDdEc-8">
          <mxGeometry relative="1" as="geometry">
            <mxPoint x="230" y="230" as="sourcePoint" />
            <mxPoint x="333" y="195" as="targetPoint" />
          </mxGeometry>
        </mxCell>
        <mxCell id="XNnfS-JBgEhjAtbrDdEc-18" style="edgeStyle=orthogonalEdgeStyle;rounded=0;orthogonalLoop=1;jettySize=auto;html=1;endArrow=block;endFill=0;strokeWidth=2;endSize=13;" edge="1" parent="1" source="atxJQaqEpM3TSjmgH-MS-33" target="XNnfS-JBgEhjAtbrDdEc-9">
          <mxGeometry relative="1" as="geometry">
            <mxPoint x="230" y="410" as="sourcePoint" />
            <mxPoint x="333" y="365" as="targetPoint" />
          </mxGeometry>
        </mxCell>
        <mxCell id="atxJQaqEpM3TSjmgH-MS-33" value="&lt;font size=&quot;1&quot; style=&quot;&quot;&gt;&lt;b style=&quot;font-size: 17px;&quot;&gt;Concrete implementation&lt;/b&gt;&lt;/font&gt;" style="rounded=1;arcSize=10;whiteSpace=wrap;html=1;align=center;strokeColor=#000000;strokeWidth=3;fillColor=#FFD966;perimeterSpacing=0;shadow=1;" parent="1" vertex="1">
          <mxGeometry x="70" y="360" width="150" height="80" as="geometry" />
        </mxCell>
        <mxCell id="XNnfS-JBgEhjAtbrDdEc-2" value="&lt;font size=&quot;1&quot; style=&quot;&quot;&gt;&lt;b style=&quot;font-size: 17px;&quot;&gt;Client software&lt;/b&gt;&lt;/font&gt;" style="rounded=1;arcSize=10;whiteSpace=wrap;html=1;align=center;strokeColor=#000000;strokeWidth=3;fillColor=#FFD966;perimeterSpacing=0;shadow=1;" vertex="1" parent="1">
          <mxGeometry x="70" y="180" width="150" height="80" as="geometry" />
        </mxCell>
      </root>
    </mxGraphModel>
  </diagram>
</mxfile>
